<svg width="168" height="50" viewBox="0 0 168 50" fill="none" xmlns="http://www.w3.org/2000/svg">
    <g clip-path="url(#clip0_240_839)">
        <path d="M25 30.5555C24.6316 30.5555 24.2784 30.4092 24.0179 30.1487C23.7574 29.8882 23.6111 29.535 23.6111 29.1666C23.6111 28.7982 23.7574 28.445 24.0179 28.1845C24.2784 27.924 24.6316 27.7777 25 27.7777C37.0443 27.7777 47.2222 22.6963 47.2222 16.6796C47.2222 16.3113 47.3686 15.958 47.629 15.6975C47.8895 15.4371 48.2428 15.2908 48.6111 15.2908C48.9795 15.2908 49.3327 15.4371 49.5932 15.6975C49.8537 15.958 50 16.3113 50 16.6796C50 24.4607 39.0191 30.5555 25 30.5555Z"
              fill="#005AA3"/>
        <path d="M48.6111 18.0664C48.2428 18.0664 47.8894 17.9201 47.629 17.6596C47.3685 17.3992 47.2222 17.0459 47.2222 16.6776C47.2222 10.5447 37.4078 5.55341 25.3418 5.55341C24.9734 5.55341 24.6202 5.40707 24.3597 5.14661C24.0992 4.88614 23.9529 4.53288 23.9529 4.16452C23.9529 3.79617 24.0992 3.4429 24.3597 3.18244C24.6202 2.92197 24.9734 2.77563 25.3418 2.77563C39.1688 2.77563 50 8.88242 50 16.6776C50 17.0459 49.8537 17.3992 49.5932 17.6596C49.3327 17.9201 48.9795 18.0664 48.6111 18.0664Z"
              fill="#005AA3"/>
        <path d="M1.38889 22.2223C1.02053 22.2223 0.667269 22.076 0.406802 21.8155C0.146335 21.555 0 21.2018 0 20.8334C0 10.7097 11.1307 2.77783 25.3418 2.77783C25.7102 2.77783 26.0634 2.92417 26.3239 3.18463C26.5844 3.4451 26.7307 3.79836 26.7307 4.16672C26.7307 4.53508 26.5844 4.88834 26.3239 5.14881C26.0634 5.40927 25.7102 5.55561 25.3418 5.55561C12.8993 5.55561 2.77778 12.41 2.77778 20.8334C2.77778 21.2018 2.63146 21.555 2.37099 21.8155C2.11052 22.076 1.75724 22.2223 1.38889 22.2223Z"
              fill="#005AA3"/>
        <path d="M1.38889 30.5696C1.02053 30.5696 0.667269 30.4233 0.406802 30.1628C0.146334 29.9024 0 29.5491 0 29.1808C0 19.0495 11.186 11.1111 25.4644 11.1111C25.6468 11.1111 25.8274 11.147 25.9959 11.2168C26.1644 11.2866 26.3175 11.3889 26.4465 11.5179C26.5755 11.6468 26.6778 11.8 26.7476 11.9685C26.8174 12.137 26.8533 12.3176 26.8533 12.5C26.8533 12.6824 26.8174 12.863 26.7476 13.0315C26.6778 13.2 26.5755 13.3531 26.4465 13.4821C26.3175 13.6111 26.1644 13.7134 25.9959 13.7832C25.8274 13.853 25.6468 13.8889 25.4644 13.8889C12.9579 13.8889 2.77777 20.7498 2.77777 29.1808C2.77777 29.3632 2.74186 29.5437 2.67206 29.7122C2.60226 29.8807 2.49996 30.0339 2.37099 30.1628C2.24202 30.2918 2.0889 30.3941 1.9204 30.4639C1.75189 30.5337 1.57128 30.5696 1.38889 30.5696Z"
              fill="#005AA3"/>
        <path d="M25.4644 38.8889C11.4236 38.8889 0 30.7889 0 20.8334C0 20.465 0.146334 20.1117 0.406802 19.8512C0.667269 19.5908 1.02053 19.4445 1.38889 19.4445C1.75724 19.4445 2.11052 19.5908 2.37099 19.8512C2.63146 20.1117 2.77777 20.465 2.77777 20.8334C2.77777 29.1157 13.1673 36.1111 25.4644 36.1111C25.8328 36.1111 26.186 36.2575 26.4465 36.5179C26.707 36.7784 26.8533 37.1317 26.8533 37.5C26.8533 37.8684 26.707 38.2216 26.4465 38.4821C26.186 38.7426 25.8328 38.8889 25.4644 38.8889Z"
              fill="#005AA3"/>
        <path d="M48.6111 26.378C48.2427 26.378 47.8895 26.2317 47.629 25.9712C47.3685 25.7107 47.2222 25.3575 47.2222 24.9891C47.2222 18.8693 37.462 13.8889 25.4644 13.8889C25.282 13.8889 25.1014 13.853 24.9329 13.7832C24.7644 13.7134 24.6113 13.6111 24.4823 13.4821C24.3534 13.3531 24.2511 13.2 24.1813 13.0315C24.1115 12.863 24.0755 12.6824 24.0755 12.5C24.0755 12.3176 24.1115 12.137 24.1813 11.9685C24.2511 11.8 24.3534 11.6468 24.4823 11.5179C24.6113 11.3889 24.7644 11.2866 24.9329 11.2168C25.1014 11.147 25.282 11.1111 25.4644 11.1111C39.2231 11.1111 50.0011 17.207 50.0011 24.9891C50.0011 25.1716 49.9651 25.3523 49.8952 25.5209C49.8254 25.6895 49.723 25.8426 49.5939 25.9716C49.4648 26.1006 49.3116 26.2029 49.143 26.2726C48.9743 26.3423 48.7936 26.3782 48.6111 26.378Z"
              fill="#005AA3"/>
        <path d="M25 47.2223C11.2196 47.2223 0 39.1223 0 29.1668C0 28.7984 0.146335 28.4451 0.406802 28.1846C0.667269 27.9241 1.02053 27.7778 1.38889 27.7778C1.75724 27.7778 2.11052 27.9241 2.37099 28.1846C2.63146 28.4451 2.77778 28.7984 2.77778 29.1668C2.77778 37.5901 12.7474 44.4445 25 44.4445C25.3684 44.4445 25.7216 44.5908 25.9821 44.8512C26.2426 45.1117 26.3889 45.465 26.3889 45.8334C26.3889 46.2018 26.2426 46.555 25.9821 46.8154C25.7216 47.0759 25.3684 47.2223 25 47.2223Z"
              fill="#005AA3"/>
        <path d="M25.4633 38.8889C25.095 38.8889 24.7417 38.7425 24.4812 38.482C24.2208 38.2216 24.0745 37.8683 24.0745 37.5C24.0745 37.1316 24.2208 36.7783 24.4812 36.5179C24.7417 36.2574 25.095 36.111 25.4633 36.111C37.462 36.111 47.2211 31.1197 47.2211 24.9891C47.2211 24.6207 47.3675 24.2675 47.628 24.007C47.8884 23.7465 48.2417 23.6002 48.6101 23.6002C48.9784 23.6002 49.3317 23.7465 49.5921 24.007C49.8526 24.2675 49.9989 24.6207 49.9989 24.9891C50 32.7831 39.222 38.8889 25.4633 38.8889Z"
              fill="#005AA3"/>
        <path d="M21.9846 22.2222C22.9434 22.2222 23.7207 21.4449 23.7207 20.4861C23.7207 19.5273 22.9434 18.75 21.9846 18.75C21.0258 18.75 20.2485 19.5273 20.2485 20.4861C20.2485 21.4449 21.0258 22.2222 21.9846 22.2222Z"
              fill="#005AA3"/>
        <path d="M28.2346 22.2222C29.1934 22.2222 29.9707 21.4449 29.9707 20.4861C29.9707 19.5273 29.1934 18.75 28.2346 18.75C27.2758 18.75 26.4985 19.5273 26.4985 20.4861C26.4985 21.4449 27.2758 22.2222 28.2346 22.2222Z"
              fill="#005AA3"/>
    </g>
    <path d="M69.72 29.3V25.964C69.72 23.924 71.544 22.436 73.44 22.436C75.864 22.436 77.784 24.14 77.784 27.116C77.784 30.404 75.672 32.012 73.368 32.012C71.472 32.012 69.72 30.956 69.72 29.3ZM67.752 33.5H69.672V31.724H70.056C70.584 33.044 72.264 33.692 73.704 33.692C77.136 33.692 79.848 31.076 79.848 27.02C79.848 23.252 77.472 20.756 74.016 20.756C72.312 20.756 70.632 21.332 69.72 22.46V15.212H67.752V33.5ZM93.4616 21.02H91.5176V28.916C91.5176 30.764 89.2616 31.94 87.7976 31.94C85.7576 31.94 84.2696 30.86 84.2696 28.796V21.02H82.3256V28.964C82.3256 32.276 84.2936 33.668 87.1256 33.668C88.7816 33.668 90.5096 33.02 91.2776 31.292H91.6136V33.5H93.4616V21.02ZM83.5976 18.788H85.7816V16.364H83.5976V18.788ZM89.1656 18.788H91.3496V16.364H89.1656V18.788ZM103.605 22.652V20.924H101.877C100.437 20.924 99.5014 21.692 99.1654 23.204H98.8294V21.02H96.8134V33.5H98.9014V26.252C99.0454 24.164 100.389 22.652 101.877 22.652H103.605ZM104.154 27.308C104.154 31.244 106.65 33.836 110.466 33.836C114.354 33.836 116.826 31.268 116.826 27.236C116.826 23.276 114.258 20.732 110.466 20.732C106.698 20.732 104.154 23.348 104.154 27.308ZM106.194 27.308C106.194 24.116 108.162 22.388 110.466 22.388C112.914 22.388 114.786 24.116 114.786 27.308C114.786 30.332 112.89 32.18 110.466 32.18C108.162 32.18 106.194 30.308 106.194 27.308ZM123.991 27.068L129.847 21.62V21.02H127.951L121.495 27.26L127.807 33.5H130.159V32.9L123.991 27.068ZM119.479 33.5H121.447V15.212H119.479V33.5ZM139.137 22.652V20.924H137.409C135.969 20.924 135.033 21.692 134.697 23.204H134.361V21.02H132.345V33.5H134.433V26.252C134.577 24.164 135.921 22.652 137.409 22.652H139.137ZM148.962 29.588C148.962 31.292 146.682 32.108 145.362 32.108C143.514 32.108 142.242 31.412 142.242 30.044C142.242 28.676 143.274 27.98 145.746 27.524C146.394 27.38 147.93 27.164 148.986 26.972L148.962 29.612V29.588ZM140.226 30.068C140.226 32.228 142.074 33.836 144.546 33.836C146.226 33.836 147.594 33.308 148.65 32.012H148.962V33.5H150.93C150.93 30.74 150.954 28.484 150.954 25.7C150.954 22.676 148.938 20.756 145.65 20.756C143.634 20.756 142.218 21.476 141.138 22.364V24.116H141.498C142.698 23.06 143.73 22.484 145.602 22.484C147.306 22.484 148.53 23.492 148.866 24.908L148.674 25.244C147.81 25.364 145.962 25.652 145.122 25.82C142.17 26.516 140.226 27.5 140.226 30.068ZM152.938 22.604H154.906L154.882 29.876C154.882 32.708 155.842 33.5 157.978 33.5H159.586V31.988H158.338C157.402 31.988 156.754 31.676 156.754 30.044L156.802 22.604H159.802V21.02H156.826L156.85 16.724H154.93L154.906 21.02H152.938V22.604ZM160.415 22.604H162.383L162.359 29.876C162.359 32.708 163.319 33.5 165.455 33.5H167.063V31.988H165.815C164.879 31.988 164.231 31.676 164.231 30.044L164.279 22.604H167.279V21.02H164.303L164.327 16.724H162.407L162.383 21.02H160.415V22.604Z"
          fill="#005AA3"/>
    <defs>
        <clipPath id="clip0_240_839">
            <rect width="50" height="50" fill="white"/>
        </clipPath>
    </defs>
</svg>
