<svg width="20" height="20" viewBox="0 0 20 20" fill="none" xmlns="http://www.w3.org/2000/svg">
    <g clip-path="url(#clip0_1008_12214)">
        <path d="M10 12.2221C9.85266 12.2221 9.71135 12.1636 9.60717 12.0594C9.50298 11.9552 9.44446 11.8139 9.44446 11.6665C9.44446 11.5192 9.50298 11.3779 9.60717 11.2737C9.71135 11.1695 9.85266 11.111 10 11.111C14.8177 11.111 18.8889 9.07844 18.8889 6.67175C18.8889 6.52441 18.9474 6.38311 19.0516 6.27892C19.1558 6.17473 19.2971 6.11621 19.4444 6.11621C19.5918 6.11621 19.7331 6.17473 19.8373 6.27892C19.9415 6.38311 20 6.52441 20 6.67175C20 9.78417 15.6076 12.2221 10 12.2221Z"
              fill="white"/>
        <path d="M19.4445 7.22668C19.2971 7.22668 19.1558 7.16814 19.0516 7.06395C18.9474 6.95977 18.8889 6.81846 18.8889 6.67112C18.8889 4.218 14.9631 2.22146 10.1367 2.22146C9.9894 2.22146 9.8481 2.16293 9.74391 2.05874C9.63972 1.95455 9.58118 1.81325 9.58118 1.66591C9.58118 1.51856 9.63972 1.37726 9.74391 1.27307C9.8481 1.16889 9.9894 1.11035 10.1367 1.11035C15.6676 1.11035 20 3.55306 20 6.67112C20 6.81846 19.9415 6.95977 19.8373 7.06395C19.7331 7.16814 19.5918 7.22668 19.4445 7.22668Z"
              fill="white"/>
        <path d="M0.555555 8.88887C0.408213 8.88887 0.266908 8.83033 0.162721 8.72615C0.0585338 8.62196 0 8.48065 0 8.33331C0 4.28383 4.45226 1.11108 10.1367 1.11108C10.2841 1.11108 10.4254 1.16962 10.5296 1.2738C10.6337 1.37799 10.6923 1.5193 10.6923 1.66664C10.6923 1.81398 10.6337 1.95529 10.5296 2.05947C10.4254 2.16366 10.2841 2.22219 10.1367 2.22219C5.15973 2.22219 1.11111 4.96395 1.11111 8.33331C1.11111 8.48065 1.05258 8.62196 0.948396 8.72615C0.844209 8.83033 0.702897 8.88887 0.555555 8.88887Z"
              fill="white"/>
        <path d="M0.555555 12.2277C0.408212 12.2277 0.266908 12.1692 0.162721 12.065C0.0585338 11.9609 0 11.8196 0 11.6722C0 7.61969 4.4744 4.44434 10.1858 4.44434C10.2587 4.44434 10.331 4.4587 10.3984 4.48662C10.4658 4.51453 10.527 4.55546 10.5786 4.60704C10.6302 4.65863 10.6711 4.71988 10.699 4.78729C10.727 4.85469 10.7413 4.92695 10.7413 4.9999C10.7413 5.07286 10.727 5.14509 10.699 5.21249C10.6711 5.2799 10.6302 5.34115 10.5786 5.39274C10.527 5.44433 10.4658 5.48525 10.3984 5.51317C10.331 5.54109 10.2587 5.55545 10.1858 5.55545C5.18317 5.55545 1.11111 8.29981 1.11111 11.6722C1.11111 11.7452 1.09674 11.8174 1.06882 11.8848C1.0409 11.9522 0.999984 12.0135 0.948396 12.065C0.896808 12.1166 0.835561 12.1576 0.768158 12.1855C0.700755 12.2134 0.628512 12.2277 0.555555 12.2277Z"
              fill="white"/>
        <path d="M10.1858 15.5556C4.56945 15.5556 0 12.3156 0 8.3334C0 8.18606 0.0585338 8.04473 0.162721 7.94054C0.266908 7.83635 0.408212 7.77783 0.555555 7.77783C0.702897 7.77783 0.844209 7.83635 0.948396 7.94054C1.05258 8.04473 1.11111 8.18606 1.11111 8.3334C1.11111 11.6463 5.26693 14.4445 10.1858 14.4445C10.3331 14.4445 10.4744 14.503 10.5786 14.6072C10.6828 14.7114 10.7413 14.8527 10.7413 15.0001C10.7413 15.1474 10.6828 15.2887 10.5786 15.3929C10.4744 15.4971 10.3331 15.5556 10.1858 15.5556Z"
              fill="white"/>
        <path d="M19.4445 10.5511C19.2971 10.5511 19.1558 10.4926 19.0517 10.3884C18.9475 10.2842 18.8889 10.1429 18.8889 9.99554C18.8889 7.54762 14.9849 5.55545 10.1858 5.55545C10.1129 5.55545 10.0406 5.54109 9.9732 5.51317C9.9058 5.48525 9.84457 5.44433 9.79298 5.39274C9.74139 5.34115 9.70047 5.2799 9.67256 5.21249C9.64464 5.14509 9.63025 5.07286 9.63025 4.9999C9.63025 4.92695 9.64464 4.85469 9.67256 4.78729C9.70047 4.71988 9.74139 4.65863 9.79298 4.60704C9.84457 4.55546 9.9058 4.51453 9.9732 4.48662C10.0406 4.4587 10.1129 4.44434 10.1858 4.44434C15.6893 4.44434 20.0005 6.88269 20.0005 9.99554C20.0005 10.0685 19.9861 10.1408 19.9581 10.2083C19.9302 10.2757 19.8892 10.3369 19.8376 10.3885C19.786 10.4401 19.7247 10.481 19.6572 10.5089C19.5898 10.5368 19.5175 10.5512 19.4445 10.5511Z"
              fill="white"/>
        <path d="M10 18.8889C4.48785 18.8889 0 15.6489 0 11.6667C0 11.5193 0.0585338 11.378 0.162721 11.2738C0.266908 11.1696 0.408213 11.1111 0.555555 11.1111C0.702897 11.1111 0.844209 11.1696 0.948396 11.2738C1.05258 11.378 1.11111 11.5193 1.11111 11.6667C1.11111 15.036 5.09896 17.7777 10 17.7777C10.1473 17.7777 10.2887 17.8363 10.3928 17.9405C10.497 18.0446 10.5556 18.186 10.5556 18.3333C10.5556 18.4807 10.497 18.6219 10.3928 18.7261C10.2887 18.8303 10.1473 18.8889 10 18.8889Z"
              fill="white"/>
        <path d="M10.1853 15.5556C10.038 15.5556 9.89666 15.4971 9.79247 15.3929C9.68828 15.2887 9.62976 15.1474 9.62976 15.0001C9.62976 14.8527 9.68828 14.7114 9.79247 14.6072C9.89666 14.5031 10.038 14.4445 10.1853 14.4445C14.9848 14.4445 18.8884 12.448 18.8884 9.99573C18.8884 9.84838 18.947 9.70708 19.0512 9.60289C19.1553 9.49871 19.2967 9.44019 19.444 9.44019C19.5913 9.44019 19.7326 9.49871 19.8368 9.60289C19.941 9.70708 19.9995 9.84838 19.9995 9.99573C20 13.1133 15.6888 15.5556 10.1853 15.5556Z"
              fill="white"/>
        <path d="M8.79381 8.88889C9.17734 8.88889 9.48825 8.57798 9.48825 8.19444C9.48825 7.81091 9.17734 7.5 8.79381 7.5C8.41028 7.5 8.09937 7.81091 8.09937 8.19444C8.09937 8.57798 8.41028 8.88889 8.79381 8.88889Z"
              fill="white"/>
        <path d="M11.2938 8.88889C11.6773 8.88889 11.9883 8.57798 11.9883 8.19444C11.9883 7.81091 11.6773 7.5 11.2938 7.5C10.9103 7.5 10.5994 7.81091 10.5994 8.19444C10.5994 8.57798 10.9103 8.88889 11.2938 8.88889Z"
              fill="white"/>
    </g>
    <defs>
        <clipPath id="clip0_1008_12214">
            <rect width="20" height="20" fill="white"/>
        </clipPath>
    </defs>
</svg>
